<?xml version="1.0" encoding="utf-8"?>
<!-- Generator: Adobe Illustrator 16.0.4, SVG Export Plug-In . SVG Version: 6.00 Build 0)  -->
<!DOCTYPE svg PUBLIC "-//W3C//DTD SVG 1.1//EN" "http://www.w3.org/Graphics/SVG/1.1/DTD/svg11.dtd">
<svg version="1.1" id="Layer_1" xmlns="http://www.w3.org/2000/svg" xmlns:xlink="http://www.w3.org/1999/xlink" x="0px" y="0px"
	 width="1101.373px" height="1102.11px" viewBox="0 0 1101.373 1102.11" enable-background="new 0 0 1101.373 1102.11"
	 xml:space="preserve">
<path d="M1101.318,550.982c4.329,296.584-249.84,562.987-573.629,550.72C251.276,1091.229-12.125,854.277,0.432,525.835
	C10.958,250.504,247.581-12.673,576.628,0.473C856.727,11.665,1103.485,248.841,1101.318,550.982 M358.799,498.338
	c4.64,23.579,45.5,0,71.5,0c35.167-2.552,56.751,12,52.172,48.994c-3.459,27.944-10.072,55.6-16.774,83.02
	c-12.123,49.595-30.345,97.562-36.913,148.688c-6.146,47.837,14.121,88.04,55.712,103.607c29.306,10.969,60.325,11.977,89.959,5.575
	c30.105-6.502,121.344-38.21,117.15-64.019c-2.55-15.694-22.519-8.043-25.479-7.346c-13.74,3.23-27.29,7.669-41.197,9.702
	c-31.754,4.646-53.648-13.434-49.892-41.822c3.14-23.725,8.062-47.298,13.623-70.598c13.934-58.388,38.245-114.307,41.463-175.244
	c1.31-24.793-3.319-47.664-20.082-67.147c-26.239-30.498-61.973-34.857-98.222-33.123c-12.349,0.59-24.417,2.472-36.281,5.237
	C449.238,449.993,354.799,478.013,358.799,498.338"/>
<path fill="#FFFFFF" d="M659.387,298.207c0,38.921-31.553,70.473-70.474,70.473s-70.472-31.552-70.472-70.473
	c0-38.921,31.551-70.473,70.472-70.473S659.387,259.286,659.387,298.207"/>
</svg>
