<?xml version="1.0" encoding="utf-8"?>
<!-- Generator: Adobe Illustrator 16.0.4, SVG Export Plug-In . SVG Version: 6.00 Build 0)  -->
<!DOCTYPE svg PUBLIC "-//W3C//DTD SVG 1.1//EN" "http://www.w3.org/Graphics/SVG/1.1/DTD/svg11.dtd">
<svg version="1.1" id="Layer_1" xmlns="http://www.w3.org/2000/svg" xmlns:xlink="http://www.w3.org/1999/xlink" x="0px" y="0px"
	 width="56.698px" height="33.209px" viewBox="0 0.002 56.698 33.209" enable-background="new 0 0.002 56.698 33.209"
	 xml:space="preserve">
<g>
	<path fill="#1A1A1A" d="M53.771,0.118c2.176-0.036,2.952,0.78,2.926,2.924c-0.112,9.148-0.154,18.298-0.151,27.448
		c0,2.049-0.797,2.739-2.847,2.721c-12.136-0.108-24.273-0.128-36.411-0.117c-1.277,0.002-2.219-0.357-3.09-1.254
		c-4.345-4.47-8.696-8.934-13.101-13.345c-1.509-1.511-1.449-2.702,0.094-4.189c4.432-4.273,8.792-8.621,13.107-13.013
		c0.977-0.995,2.004-1.299,3.32-1.291 M20.837,16.791c0.062-2.527-1.92-4.661-4.439-4.781c-2.635-0.125-4.854,1.931-4.904,4.543
		c-0.049,2.585,1.874,4.672,4.402,4.777C18.531,21.438,20.774,19.379,20.837,16.791z"/>
	<path fill="#F6A706" d="M20.837,16.791c-0.063,2.589-2.306,4.649-4.941,4.54c-2.529-0.105-4.452-2.192-4.402-4.777
		c0.05-2.612,2.27-4.668,4.904-4.543C18.917,12.129,20.9,14.264,20.837,16.791z"/>
</g>
</svg>
