<?xml version="1.0" encoding="utf-8"?>
<!-- Generator: Adobe Illustrator 16.0.4, SVG Export Plug-In . SVG Version: 6.00 Build 0)  -->
<!DOCTYPE svg PUBLIC "-//W3C//DTD SVG 1.1//EN" "http://www.w3.org/Graphics/SVG/1.1/DTD/svg11.dtd">
<svg version="1.1" id="Layer_1" xmlns="http://www.w3.org/2000/svg" xmlns:xlink="http://www.w3.org/1999/xlink" x="0px" y="0px"
	 width="412.738px" height="424.791px" viewBox="0 0 412.738 424.791" enable-background="new 0 0 412.738 424.791"
	 xml:space="preserve">
<path fill="#F39C12" d="M407.333,207.195c-6.365-6.973-21.401-12.129-45.517,12.074c-32.035,32.148-72.82,77.183-72.486,76.83
	l0.084,0.082l-71.648,72.955c-4.32,4.4-11.496,4.504-15.942,0.229L42.038,215.733c-4.433-4.262-8.175-12.779-8.316-18.928
	l-0.725-31.629c-0.142-6.212,3.462-7.83,8.01-3.596l160.49,149.417c4.515,4.203,11.708,4.006,15.985-0.438l177.746-185.178
	c4.264-4.432,7.323-13.089,7.323-19.238V11.896c-1-15.888-13.861-12.747-18.045-8.256c-42.188,45.306-168.35,181.405-168.35,181.405
	c-4.187,4.486-11.293,4.861-15.922,0.834L37.854,47.085C33.292,43.115,1.326,16.633,0.04,17.604
	c-1.307,0.986,30.35,32.905,35.726,37.509l164.906,155.681c4.462,4.212,11.625,4.069,15.914-0.32l157.84-161.519
	c4.35-4.449,7.71-3.004,7.473,3.212l-1.614,41.936c-0.237,6.145-3.989,14.728-8.34,19.074L216.089,268.874
	c-4.364,4.359-11.596,4.453-16.071,0.208L28.359,106.269C13.053,91.751,0.553,97.134,0.553,118.23v93.473
	c0,6.149,3.561,14.713,7.943,19.028L202.187,421.53c4.371,4.307,11.565,4.354,15.991,0.104l100.135-96.767
	c-0.44,0.405,64.7-59.188,79.332-75.369C411.397,234.29,418.261,219.167,407.333,207.195 M376.885,244.104
	c-15.325,15.196-37.127,22.828-37.069,22.787c0,0,8.29-15.328,23.065-31.035c16.039-17.045,24.033-20.024,27.093-17.199
	C392.661,221.136,395.208,225.935,376.885,244.104"/>
</svg>
